<?xml version="1.0" standalone="no"?>
<!DOCTYPE svg PUBLIC "-//W3C//DTD SVG 20010904//EN"
 "http://www.w3.org/TR/2001/REC-SVG-20010904/DTD/svg10.dtd">
<svg version="1.0" xmlns="http://www.w3.org/2000/svg"
 width="1619.000000pt" height="626.000000pt" viewBox="0 0 1619.000000 626.000000"
 preserveAspectRatio="xMidYMid meet">

<g transform="translate(0.000000,626.000000) scale(0.100000,-0.100000)"
fill="#000000" stroke="none">
<path d="M1705 5020 l-1110 -638 0 -1282 0 -1283 1110 -637 1110 -638 30 17
c17 9 519 298 1118 641 l1087 623 0 1277 0 1277 -1087 623 c-599 343 -1101
631 -1118 641 l-30 16 -1110 -637z m2178 -106 l1047 -599 0 -1215 0 -1215
-1031 -590 c-567 -324 -1043 -596 -1058 -603 -26 -13 -60 5 -1081 591 l-1055
605 0 1212 0 1213 1050 603 c578 332 1057 602 1066 600 8 -2 486 -273 1062
-602z"/>
<path d="M11850 5545 c0 -56 118 -77 165 -30 14 13 25 29 25 35 0 15 -30 12
-36 -4 -14 -37 -103 -38 -117 -2 -8 20 -37 21 -37 1z"/>
<path d="M5600 5345 c0 -188 1 -195 20 -195 19 0 20 7 20 175 l0 175 85 0 c78
0 85 2 85 20 0 19 -7 20 -105 20 l-105 0 0 -195z"/>
<path d="M6082 5431 c-39 -25 -42 -25 -42 -6 0 8 -7 15 -15 15 -13 0 -15 -30
-15 -210 0 -180 2 -210 15 -210 12 0 15 16 15 85 0 47 3 85 6 85 3 0 17 -9 31
-20 16 -12 41 -20 64 -20 78 0 129 84 113 188 -14 92 -99 138 -172 93z m98
-31 c27 -14 44 -79 36 -134 -12 -80 -85 -112 -143 -62 -26 22 -28 30 -28 94 0
86 18 112 77 112 22 0 48 -5 58 -10z"/>
<path d="M7872 5439 c-35 -10 -40 -36 -6 -31 69 10 96 6 115 -17 11 -14 19
-34 17 -45 -3 -18 -12 -22 -68 -27 -79 -7 -105 -19 -118 -59 -13 -36 1 -86 28
-100 33 -17 95 -12 125 11 22 18 29 20 36 8 5 -8 9 -17 9 -21 0 -5 5 -8 10 -8
13 0 13 235 0 260 -18 34 -84 47 -148 29z m118 -177 c0 -45 -21 -69 -67 -78
-42 -8 -73 10 -73 44 0 40 13 54 56 62 80 16 84 14 84 -28z"/>
<path d="M9005 5436 c-52 -23 -69 -51 -73 -120 -5 -78 15 -126 62 -151 44 -24
118 -16 152 16 68 64 52 214 -29 252 -42 20 -71 21 -112 3z m113 -49 c48 -51
34 -175 -23 -197 -43 -16 -65 -12 -96 19 -26 26 -29 37 -29 89 0 80 24 112 84
112 31 0 48 -6 64 -23z"/>
<path d="M10462 5439 c-35 -10 -40 -36 -6 -31 69 10 96 6 115 -17 11 -14 19
-34 17 -45 -3 -18 -12 -22 -68 -27 -79 -7 -105 -19 -118 -59 -13 -36 1 -86 28
-100 33 -17 95 -12 125 11 22 18 29 20 36 8 5 -8 9 -17 9 -21 0 -5 5 -8 10 -8
13 0 13 235 0 260 -18 34 -84 47 -148 29z m118 -177 c0 -45 -21 -69 -67 -78
-42 -8 -73 10 -73 44 0 40 13 54 56 62 80 16 84 14 84 -28z"/>
<path d="M6433 5428 c57 -135 107 -266 107 -280 0 -51 -59 -108 -97 -94 -8 3
-13 -2 -13 -14 0 -16 7 -20 34 -20 60 0 81 29 150 210 84 220 81 210 58 210
-16 0 -27 -22 -62 -120 -23 -66 -46 -117 -51 -114 -5 3 -9 9 -9 14 0 4 -18 56
-41 114 -33 86 -45 106 -61 106 -12 0 -18 -5 -15 -12z"/>
<path d="M6880 5295 c0 -138 1 -145 20 -145 19 0 20 7 20 130 l0 130 80 0 80
0 0 -130 c0 -123 1 -130 20 -130 19 0 20 7 20 145 l0 145 -120 0 -120 0 0
-145z"/>
<path d="M7350 5295 c0 -138 1 -145 20 -145 19 0 20 7 20 130 l0 130 80 0 80
0 0 -130 c0 -123 1 -130 20 -130 19 0 20 7 20 145 l0 145 -120 0 -120 0 0
-145z"/>
<path d="M8520 5295 c0 -138 1 -145 20 -145 18 0 20 7 20 75 0 41 3 75 8 75 4
0 36 -34 71 -75 47 -54 71 -75 89 -75 21 0 16 9 -46 77 l-71 77 59 65 c45 50
55 67 43 70 -11 2 -40 -21 -78 -63 -33 -37 -63 -66 -67 -66 -5 0 -8 29 -8 65
0 58 -2 65 -20 65 -19 0 -20 -7 -20 -145z"/>
<path d="M9400 5295 c0 -121 2 -145 15 -145 12 0 15 21 17 110 2 61 7 111 12
113 5 1 28 -47 51 -108 55 -143 64 -144 119 -6 23 58 47 106 54 109 9 3 12
-24 12 -107 0 -92 3 -111 15 -111 13 0 15 23 15 145 l0 145 -28 0 c-27 0 -31
-6 -73 -112 -25 -62 -49 -113 -54 -112 -6 1 -29 51 -53 113 -42 106 -45 111
-73 111 l-29 0 0 -145z"/>
<path d="M9940 5295 c0 -138 1 -145 20 -145 19 0 20 7 20 130 l0 130 80 0 80
0 0 -130 c0 -123 1 -130 20 -130 19 0 20 7 20 145 l0 145 -120 0 -120 0 0
-145z"/>
<path d="M10850 5295 c0 -138 1 -145 20 -145 18 0 20 7 20 70 l0 71 83 -3 82
-3 3 -67 c3 -60 5 -68 22 -68 19 0 20 8 20 145 0 138 -1 145 -20 145 -18 0
-20 -7 -20 -60 l0 -60 -85 0 -85 0 0 60 c0 53 -2 60 -20 60 -19 0 -20 -7 -20
-145z"/>
<path d="M11330 5294 l0 -145 26 3 c22 2 40 24 100 118 40 63 78 116 83 118 7
2 11 -36 11 -117 0 -101 2 -121 15 -121 13 0 15 23 15 145 l0 145 -25 0 c-21
0 -37 -19 -100 -115 -41 -63 -78 -115 -83 -115 -4 0 -6 52 -4 115 4 112 4 115
-17 115 -20 0 -21 -4 -21 -146z"/>
<path d="M11810 5294 l0 -145 27 3 c23 2 40 23 101 118 40 63 77 117 82 118 6
2 10 -45 10 -117 0 -101 2 -121 15 -121 13 0 15 23 15 145 l0 145 -25 0 c-20
0 -35 -17 -82 -91 -32 -51 -68 -103 -80 -118 l-22 -26 -1 118 c0 110 -1 117
-20 117 -19 0 -20 -7 -20 -146z"/>
<path d="M10918 4089 c-208 -27 -363 -171 -414 -386 -11 -43 -16 -110 -16
-183 1 -187 46 -323 143 -425 99 -104 209 -140 409 -132 74 3 147 12 178 21
l52 17 0 54 c0 30 -4 55 -9 55 -6 0 -40 -7 -78 -16 -104 -26 -253 -23 -327 6
-148 57 -236 215 -236 425 0 203 82 355 229 424 50 23 67 26 166 25 93 0 120
-4 178 -26 l68 -26 24 49 c14 26 25 53 25 58 0 16 -121 51 -211 61 -93 11 -87
11 -181 -1z"/>
<path d="M5700 3525 l0 -555 55 0 55 0 0 492 c0 270 3 488 7 485 3 -4 88 -224
188 -490 l181 -482 53 0 53 0 183 480 c101 263 187 481 191 482 5 2 8 -213 6
-482 l-4 -485 66 0 66 0 0 555 0 556 -101 -3 -100 -3 -172 -449 c-95 -247
-177 -451 -182 -453 -6 -1 -87 201 -180 450 l-171 452 -97 3 -97 3 0 -556z"/>
<path d="M7470 3525 l0 -555 73 0 72 0 294 446 c162 245 302 456 312 467 16
20 17 -2 11 -446 l-5 -467 61 0 62 0 0 555 0 555 -72 0 -73 -1 -299 -449
c-165 -248 -304 -455 -311 -460 -8 -7 -10 113 -7 451 l4 459 -61 0 -61 0 0
-555z"/>
<path d="M9030 3525 l0 -555 60 0 60 0 0 260 0 260 295 0 295 0 0 -260 0 -260
65 0 65 0 0 555 0 555 -65 0 -65 0 0 -235 0 -235 -295 0 -295 0 0 235 0 235
-60 0 -60 0 0 -555z"/>
<path d="M11890 3525 l0 -555 60 0 60 0 0 281 c0 220 3 280 13 277 6 -3 124
-129 260 -281 l248 -277 75 0 c40 0 74 2 74 4 0 2 -112 131 -250 286 l-250
283 73 81 c40 45 133 149 207 231 73 83 149 167 169 188 l35 37 -75 0 -76 0
-238 -262 c-131 -145 -244 -264 -252 -266 -11 -3 -13 46 -13 262 l0 266 -60 0
-60 0 0 -555z"/>
<path d="M13170 3430 l0 -30 175 0 175 0 0 30 0 30 -175 0 -175 0 0 -30z"/>
<path d="M7525 2166 c-90 -17 -165 -55 -230 -117 -61 -57 -94 -116 -127 -219
-20 -64 -23 -95 -23 -220 1 -212 43 -339 146 -442 86 -86 204 -128 363 -128
146 0 262 44 350 134 102 103 147 234 148 431 1 230 -61 380 -201 485 -97 73
-275 105 -426 76z m285 -133 c90 -40 141 -101 182 -215 19 -54 22 -83 22 -208
-1 -163 -16 -229 -73 -319 -70 -108 -219 -161 -375 -131 -125 23 -212 100
-258 227 -26 71 -37 288 -19 374 31 148 110 244 236 286 60 20 228 12 285 -14z"/>
<path d="M5700 1605 l0 -555 60 0 60 0 0 495 0 495 285 0 285 0 0 -495 0 -495
65 0 65 0 0 555 0 555 -410 0 -410 0 0 -555z"/>
<path d="M8956 2098 c-18 -163 -89 -634 -111 -729 -40 -182 -74 -225 -170
-217 l-55 5 0 -53 c0 -60 6 -64 103 -64 178 0 228 116 307 707 17 125 33 243
36 261 l5 32 179 0 180 0 0 -495 0 -495 65 0 65 0 0 555 0 555 -299 0 -298 0
-7 -62z"/>
<path d="M10240 1605 l0 -555 70 0 70 0 301 453 c165 248 306 458 313 465 10
10 12 -79 8 -453 l-5 -465 62 0 61 0 0 555 0 555 -74 0 -74 0 -296 -449 c-164
-248 -303 -455 -310 -460 -11 -9 -12 73 -8 449 l5 460 -62 0 -61 0 0 -555z"/>
<path d="M11790 1605 l0 -555 61 0 61 0 -4 485 c-2 270 1 484 6 482 4 -1 90
-220 189 -485 l181 -482 51 0 52 0 178 468 c98 257 184 478 191 492 11 21 13
-53 14 -467 l0 -493 60 0 60 0 0 555 0 556 -97 -3 -98 -3 -171 -448 c-94 -246
-174 -451 -178 -454 -3 -4 -9 -4 -12 0 -3 3 -82 207 -174 454 l-168 448 -101
3 -101 3 0 -556z"/>
<path d="M13570 1605 l0 -555 305 0 305 0 0 60 0 60 -240 0 -240 0 0 205 0
205 225 0 225 0 0 55 0 55 -225 0 -225 0 0 175 0 175 240 0 240 0 0 60 0 60
-305 0 -305 0 0 -555z"/>
<path d="M14790 1606 l0 -556 65 0 65 0 0 220 0 220 114 0 c131 0 199 11 271
44 72 32 120 78 152 144 25 51 28 67 28 162 0 99 -2 108 -31 160 -20 36 -47
66 -78 87 -84 57 -127 66 -368 71 l-218 4 0 -556z m363 434 c88 -13 140 -40
174 -92 24 -36 28 -51 28 -117 0 -62 -5 -84 -25 -120 -43 -76 -145 -111 -323
-111 l-87 0 0 218 c0 120 3 222 7 225 10 10 148 8 226 -3z"/>
</g>
</svg>
